<svg xmlns="http://www.w3.org/2000/svg" xmlns:xlink="http://www.w3.org/1999/xlink" width="500" zoomAndPan="magnify" viewBox="0 0 375 374.999991" height="500" preserveAspectRatio="xMidYMid meet" version="1.0"><defs><g/><clipPath id="c9623cfafd"><path d="M 178 167 L 189 167 L 189 170.144531 L 178 170.144531 Z M 178 167 " clip-rule="nonzero"/></clipPath><clipPath id="a3a5165fc0"><path d="M 196 81.238281 L 201 81.238281 L 201 83 L 196 83 Z M 196 81.238281 " clip-rule="nonzero"/></clipPath><clipPath id="92bf8780c8"><path d="M 148.667969 81.238281 L 232.898438 81.238281 L 232.898438 168 L 148.667969 168 Z M 148.667969 81.238281 " clip-rule="nonzero"/></clipPath><clipPath id="533be4f0bd"><path d="M 148.667969 90.25 L 225.410156 90.25 L 225.410156 161.378906 L 148.667969 161.378906 Z M 148.667969 90.25 " clip-rule="nonzero"/></clipPath></defs><path fill="#ef7993" d="M 198.648438 83.835938 C 197.84375 83.808594 198.019531 83.957031 198.535156 84.144531 C 199.050781 84.347656 199.894531 84.628906 200.460938 84.796875 C 200.738281 84.753906 201.015625 84.738281 201.296875 84.710938 C 200.730469 84.535156 200.25 84.414062 199.824219 84.277344 C 199.398438 84.144531 199.023438 83.992188 198.648438 83.835938 " fill-opacity="1" fill-rule="nonzero"/><g clip-path="url(#c9623cfafd)"><path fill="#ef7993" d="M 187.941406 169.234375 C 187.074219 169.144531 186.253906 169.128906 185.460938 169.074219 C 184.671875 169.007812 183.902344 168.992188 183.136719 168.90625 C 181.609375 168.746094 180.074219 168.496094 178.429688 167.84375 C 178.390625 167.992188 178.621094 168.191406 179.011719 168.414062 C 179.410156 168.621094 179.96875 168.851562 180.574219 169.078125 C 181.175781 169.316406 181.839844 169.492188 182.421875 169.675781 C 183.007812 169.859375 183.523438 170.019531 183.847656 170.128906 C 184.527344 170.136719 185.234375 170.140625 185.882812 170.097656 C 186.535156 170.042969 187.125 169.972656 187.574219 169.886719 C 188.023438 169.804688 188.332031 169.691406 188.417969 169.574219 C 188.503906 169.457031 188.371094 169.355469 187.941406 169.234375 " fill-opacity="1" fill-rule="nonzero"/></g><g clip-path="url(#a3a5165fc0)"><path fill="#ef7993" d="M 199.0625 82.1875 C 199.324219 82.207031 199.414062 82.152344 199.476562 82.074219 C 199.601562 81.925781 199.613281 81.703125 200.660156 81.925781 C 199.402344 81.632812 198.132812 81.421875 196.859375 81.238281 C 197.117188 81.4375 197.367188 81.667969 197.617188 81.882812 C 198.367188 82.09375 198.800781 82.175781 199.0625 82.1875 " fill-opacity="1" fill-rule="nonzero"/></g><g clip-path="url(#92bf8780c8)"><path fill="#ef7993" d="M 229.117188 130.09375 C 229.046875 130.507812 228.976562 130.9375 228.898438 131.378906 C 228.859375 131.597656 228.820312 131.820312 228.785156 132.042969 C 228.734375 132.261719 228.683594 132.480469 228.636719 132.699219 C 228.542969 133.136719 228.453125 133.570312 228.367188 133.984375 C 228.265625 134.394531 228.179688 134.789062 228.109375 135.15625 C 227.988281 135.894531 227.875 136.503906 227.941406 136.925781 C 227.808594 137.230469 227.679688 137.507812 227.546875 137.757812 C 227.410156 138.003906 227.273438 138.226562 227.144531 138.425781 C 226.878906 138.828125 226.636719 139.152344 226.386719 139.433594 C 226.25 139.578125 226.117188 139.714844 225.984375 139.847656 C 227.539062 136.355469 228.59375 132.597656 229.054688 128.660156 C 229.128906 128.421875 229.199219 128.183594 229.265625 127.945312 C 229.289062 128.511719 229.207031 129.261719 229.117188 130.09375 Z M 229.167969 119.417969 C 229.132812 119.527344 229.101562 119.636719 229.070312 119.75 C 229.011719 119.238281 228.945312 118.726562 228.867188 118.222656 C 228.976562 118.449219 229.078125 118.816406 229.167969 119.417969 Z M 232.601562 135.582031 C 232.019531 136.714844 231.609375 136.832031 231.3125 136.347656 C 231.164062 136.105469 231.042969 135.714844 230.941406 135.21875 C 230.886719 134.972656 230.847656 134.703125 230.796875 134.410156 C 230.742188 134.117188 230.6875 133.804688 230.636719 133.476562 C 230.589844 133.15625 230.542969 132.816406 230.492188 132.464844 C 230.433594 132.117188 230.371094 131.761719 230.3125 131.394531 C 230.253906 131.039062 230.191406 130.675781 230.132812 130.3125 C 230.066406 129.953125 229.984375 129.59375 229.914062 129.242188 C 229.839844 128.890625 229.765625 128.546875 229.695312 128.214844 C 229.613281 127.882812 229.523438 127.5625 229.441406 127.261719 C 229.371094 127.011719 229.308594 126.78125 229.242188 126.558594 C 229.292969 125.757812 229.320312 124.953125 229.320312 124.140625 C 229.320312 124.089844 229.316406 124.039062 229.316406 123.984375 C 229.351562 124.050781 229.382812 124.101562 229.417969 124.140625 C 229.554688 124.304688 229.707031 124.1875 229.8125 123.730469 C 229.867188 123.5 229.910156 123.183594 229.941406 122.765625 C 229.957031 122.558594 229.96875 122.328125 229.972656 122.070312 C 229.96875 121.8125 229.957031 121.53125 229.9375 121.222656 L 229.402344 120.835938 C 229.488281 120.050781 229.480469 119.261719 229.515625 118.464844 C 229.535156 118.066406 229.511719 117.671875 229.507812 117.269531 L 229.480469 116.070312 C 229.839844 115.195312 230.261719 118.210938 230.726562 118.210938 C 230.898438 118.363281 231.011719 118.21875 231.085938 117.878906 C 231.140625 117.542969 231.148438 117.011719 231.125 116.402344 C 231.117188 115.792969 231.011719 115.113281 230.925781 114.460938 C 230.84375 113.808594 230.707031 113.199219 230.609375 112.738281 C 230.171875 111.847656 230.140625 112.175781 230.25 112.882812 C 230.296875 113.238281 230.410156 113.683594 230.476562 114.136719 C 230.554688 114.585938 230.628906 115.03125 230.6875 115.367188 L 229.949219 114.136719 C 229.699219 113.730469 229.421875 113.335938 229.160156 112.945312 C 228.933594 112.242188 228.730469 111.164062 228.976562 111.117188 C 228.96875 110.679688 229.207031 110.628906 229.378906 110.515625 C 229.539062 110.40625 229.664062 110.21875 229.339844 109.519531 C 228.609375 107.433594 228.328125 107.488281 228.125 107.609375 C 227.902344 107.738281 227.714844 107.941406 226.925781 106.324219 C 226.746094 106.96875 227.230469 108.65625 227.671875 110.441406 C 228.082031 112.238281 228.46875 114.128906 228.441406 115.085938 C 228.554688 115.589844 228.699219 116.085938 228.789062 116.59375 C 228.710938 116.765625 228.640625 116.71875 228.574219 116.574219 C 228.105469 114.214844 227.421875 111.933594 226.542969 109.746094 C 226.453125 109.371094 226.371094 109 226.265625 108.640625 C 226.121094 108.121094 225.988281 107.609375 225.863281 107.117188 C 225.566406 106.15625 225.335938 105.253906 225.085938 104.546875 C 225.3125 104.390625 225.148438 103.539062 225.132812 102.960938 C 225.121094 102.671875 225.152344 102.449219 225.316406 102.414062 C 225.476562 102.378906 225.792969 102.515625 226.265625 103 C 226.117188 102.6875 225.992188 102.410156 225.875 102.140625 C 225.761719 101.863281 225.65625 101.601562 225.542969 101.324219 C 225.324219 100.761719 224.996094 100.179688 224.386719 99.421875 C 224.152344 99.1875 223.921875 98.964844 223.695312 98.753906 C 223.472656 98.539062 223.261719 98.332031 223.0625 98.125 C 222.667969 97.707031 222.289062 97.332031 221.945312 96.957031 C 221.269531 96.195312 220.65625 95.519531 220.089844 94.820312 C 219.800781 94.476562 219.496094 94.148438 219.199219 93.808594 C 218.898438 93.472656 218.59375 93.125 218.246094 92.800781 C 217.90625 92.46875 217.546875 92.132812 217.160156 91.792969 C 216.753906 91.472656 216.320312 91.144531 215.839844 90.8125 C 216.253906 91.296875 215.394531 90.886719 215.179688 90.941406 C 214.554688 90.445312 214.128906 90.054688 213.847656 89.75 C 213.566406 89.449219 213.421875 89.238281 213.382812 89.070312 C 213.296875 88.734375 213.59375 88.59375 213.816406 88.441406 C 214.039062 88.285156 214.183594 88.113281 213.769531 87.695312 C 213.355469 87.277344 212.378906 86.589844 210.269531 85.644531 C 209.902344 85.484375 209.574219 85.355469 209.292969 85.257812 C 209.007812 85.167969 208.765625 85.125 208.582031 85.105469 C 208.390625 85.085938 208.265625 85.105469 208.207031 85.160156 C 207.808594 84.949219 207.445312 84.722656 208.503906 85.066406 C 207.128906 84.320312 206.347656 84.015625 205.945312 83.859375 C 205.542969 83.714844 205.5 83.753906 205.519531 83.851562 C 205.539062 83.945312 205.621094 84.09375 205.472656 84.160156 C 205.398438 84.191406 205.269531 84.203125 205.039062 84.183594 C 204.8125 84.167969 204.488281 84.121094 204.03125 84.027344 L 205.136719 84.285156 L 206.230469 84.589844 C 206.890625 84.761719 207.535156 84.980469 208.179688 85.199219 C 208.160156 85.246094 208.179688 85.3125 208.238281 85.398438 C 208.480469 85.558594 208.714844 85.726562 208.953125 85.90625 C 209.191406 86.09375 209.433594 86.289062 209.699219 86.480469 C 209.960938 86.671875 210.25 86.867188 210.582031 87.054688 C 210.902344 87.253906 211.265625 87.453125 211.683594 87.640625 C 211.605469 87.746094 212.226562 88.136719 212.605469 88.503906 C 212.992188 88.855469 213.175781 89.117188 212.316406 88.867188 C 211.910156 88.570312 211.488281 88.351562 211.101562 88.132812 C 210.710938 87.921875 210.347656 87.714844 209.972656 87.566406 C 209.605469 87.414062 209.25 87.273438 208.90625 87.144531 C 208.734375 87.082031 208.566406 87.019531 208.398438 86.957031 C 208.226562 86.90625 208.058594 86.851562 207.894531 86.800781 C 206.5625 86.386719 205.324219 86.054688 203.835938 85.433594 L 202.71875 85.460938 C 202.429688 85.355469 202.011719 85.277344 201.535156 85.175781 C 201.058594 85.074219 200.523438 84.957031 199.96875 84.875 C 199.410156 84.789062 198.851562 84.664062 198.320312 84.566406 C 197.789062 84.46875 197.296875 84.351562 196.894531 84.203125 C 194.480469 83.734375 194.574219 83.5625 195.335938 83.425781 C 195.714844 83.363281 196.253906 83.3125 196.722656 83.257812 C 197.183594 83.222656 197.570312 83.179688 197.632812 83.085938 C 197.292969 83.011719 196.957031 82.917969 196.613281 82.855469 L 195.582031 82.664062 C 195.238281 82.605469 194.894531 82.527344 194.546875 82.484375 L 193.503906 82.34375 C 191.050781 82.636719 189.089844 82.335938 187.144531 82.195312 C 186.171875 82.101562 185.222656 82.09375 184.257812 82.179688 C 183.777344 82.21875 183.300781 82.332031 182.820312 82.457031 C 182.339844 82.59375 181.855469 82.761719 181.382812 83.023438 L 181.742188 82.671875 C 182.875 82.261719 182.652344 82.058594 181.910156 81.988281 C 181.542969 81.953125 181.050781 81.988281 180.542969 82.039062 C 180.035156 82.09375 179.511719 82.167969 179.097656 82.300781 L 177.859375 82.894531 C 177.421875 83.296875 176.730469 83.71875 175.855469 84.105469 C 175.003906 84.539062 173.964844 84.941406 172.902344 85.445312 C 170.753906 86.410156 168.414062 87.625 166.757812 88.933594 C 166.003906 89.417969 165.585938 89.457031 166.203125 88.964844 C 165.535156 89.355469 164.839844 89.714844 164.191406 90.148438 C 163.53125 90.566406 162.867188 90.980469 162.234375 91.445312 C 162.148438 91.859375 161.953125 92.203125 161.667969 92.519531 C 161.394531 92.851562 161.039062 93.15625 160.632812 93.476562 C 160.21875 93.785156 159.773438 94.136719 159.316406 94.539062 C 159.085938 94.738281 158.855469 94.949219 158.621094 95.179688 C 158.394531 95.410156 158.179688 95.671875 157.964844 95.945312 C 157.734375 96.375 157.554688 96.734375 157.40625 97.078125 C 157.265625 97.425781 157.140625 97.746094 157.007812 98.082031 C 156.875 98.417969 156.714844 98.753906 156.535156 99.160156 C 156.355469 99.5625 156.132812 100.019531 155.835938 100.566406 C 153.742188 102.949219 152.636719 105.269531 151.738281 107.523438 C 150.847656 109.792969 150.144531 112.007812 149.074219 114.675781 C 149.214844 114.933594 149.277344 115.339844 149.328125 115.765625 C 149.394531 116.195312 149.441406 116.640625 149.511719 116.976562 C 149.652344 117.648438 149.890625 117.867188 150.554688 116.664062 C 149.808594 119.40625 149.269531 122.085938 149.007812 124.808594 C 148.75 127.527344 148.777344 130.292969 149.265625 133.113281 C 149.472656 133.472656 149.675781 133.863281 149.882812 134.207031 C 150.328125 134.457031 150.988281 134.929688 151.664062 135.394531 C 152.28125 135.824219 152.96875 136.230469 153.574219 136.464844 C 154.613281 139.546875 156.03125 142.453125 157.769531 145.136719 C 157.617188 145.46875 157.523438 145.902344 157.523438 146.429688 C 157.535156 146.980469 157.636719 147.640625 157.839844 148.417969 C 158.734375 150.785156 160.171875 153.390625 162.226562 155.90625 C 162.746094 156.535156 163.277344 157.175781 163.875 157.777344 C 164.167969 158.082031 164.460938 158.398438 164.773438 158.699219 C 165.09375 158.992188 165.414062 159.289062 165.738281 159.589844 C 165.902344 159.738281 166.066406 159.886719 166.234375 160.035156 C 166.40625 160.175781 166.578125 160.316406 166.75 160.457031 C 167.101562 160.742188 167.453125 161.023438 167.808594 161.308594 C 168.179688 161.578125 168.554688 161.84375 168.929688 162.113281 L 169.5 162.511719 C 169.691406 162.644531 169.890625 162.761719 170.089844 162.890625 C 170.792969 163.078125 171.492188 163.300781 172.238281 163.472656 C 172.980469 163.664062 173.738281 163.875 174.550781 164.058594 L 175.558594 164.636719 L 176.597656 165.167969 C 176.945312 165.34375 177.289062 165.53125 177.644531 165.691406 L 178.714844 166.175781 C 180.953125 166.792969 183.464844 167.226562 185.777344 167.277344 C 186.355469 167.296875 186.921875 167.273438 187.464844 167.253906 C 187.738281 167.242188 188.003906 167.234375 188.265625 167.210938 C 188.523438 167.183594 188.777344 167.152344 189.027344 167.117188 C 189.519531 167.050781 189.984375 166.972656 190.414062 166.878906 C 190.847656 166.769531 191.242188 166.644531 191.59375 166.511719 C 192.421875 166.636719 192.433594 166.8125 193.273438 166.894531 C 193.679688 166.789062 194.1875 166.710938 194.753906 166.644531 C 195.3125 166.558594 195.925781 166.46875 196.539062 166.375 C 196.847656 166.332031 197.148438 166.273438 197.445312 166.203125 C 197.742188 166.136719 198.03125 166.066406 198.304688 165.992188 C 198.578125 165.914062 198.835938 165.839844 199.070312 165.746094 C 199.304688 165.648438 199.519531 165.546875 199.699219 165.433594 C 200.734375 165.355469 201.289062 165.421875 201.75 165.5 C 202.207031 165.585938 202.578125 165.71875 203.261719 165.765625 C 205.394531 164.863281 207.902344 164.085938 210.328125 163.011719 C 212.746094 161.953125 215.074219 160.597656 216.6875 158.90625 C 217.304688 158.835938 217.925781 158.496094 218.539062 158.019531 C 218.835938 157.765625 219.132812 157.480469 219.425781 157.179688 C 219.71875 156.875 220.015625 156.5625 220.292969 156.21875 C 220.855469 155.546875 221.425781 154.875 221.980469 154.269531 C 222.261719 153.96875 222.554688 153.699219 222.859375 153.46875 C 223.152344 153.230469 223.460938 153.03125 223.785156 152.886719 C 225.640625 151.109375 227.183594 148.898438 228.164062 146.949219 C 229.121094 144.988281 229.550781 143.324219 229.433594 142.59375 C 229.542969 142.644531 229.558594 143.105469 229.679688 143.335938 C 229.746094 143.453125 229.839844 143.511719 229.996094 143.429688 C 230.160156 143.351562 230.375 143.125 230.660156 142.667969 C 230.765625 142.253906 231.046875 141.445312 230.976562 141.414062 C 231.066406 141.226562 231.542969 140.273438 232.007812 139.195312 C 232.21875 138.648438 232.429688 138.070312 232.585938 137.546875 C 232.746094 137.023438 232.808594 136.546875 232.8125 136.214844 C 232.816406 135.679688 232.75 135.5 232.601562 135.582031 " fill-opacity="1" fill-rule="nonzero"/></g><g clip-path="url(#533be4f0bd)"><path fill="#ffffff" d="M 193.820312 90.25 L 193.472656 91.65625 L 192.601562 90.429688 C 191.726562 91.132812 191.550781 92.355469 191.898438 93.410156 C 192.117188 94.210938 192.671875 94.9375 193.238281 95.53125 L 194.613281 95.757812 L 195.710938 94.671875 C 195.871094 93.945312 195.941406 93.128906 195.75 92.355469 C 195.75 91.480469 194.871094 90.25 193.820312 90.25 Z M 200.074219 92.449219 C 199.285156 92.335938 198.359375 92.640625 197.820312 93.152344 C 197.269531 93.558594 196.863281 94.175781 196.558594 94.8125 L 196.742188 96.550781 L 198.269531 97.300781 C 199.003906 97.199219 199.765625 96.984375 200.34375 96.550781 C 201.066406 95.691406 201.804688 94.488281 201.652344 93.605469 L 200.242188 93.917969 L 200.804688 92.703125 C 200.589844 92.5625 200.339844 92.484375 200.074219 92.449219 Z M 189.703125 95.363281 C 188.964844 95.4375 188.179688 95.832031 187.785156 96.621094 L 189.007812 97.324219 L 187.785156 97.847656 C 188.136719 98.902344 189.359375 99.429688 190.230469 99.429688 C 191.035156 99.496094 191.832031 99.25 192.519531 98.925781 L 193.289062 97.566406 L 192.421875 96.101562 C 191.8125 95.75 191.121094 95.457031 190.402344 95.394531 C 190.183594 95.351562 189.949219 95.339844 189.703125 95.363281 Z M 148.851562 97.964844 L 148.851562 104.9375 C 150.242188 107.03125 151.804688 108.605469 152.671875 109.476562 C 154.753906 111.21875 155.972656 111.566406 158.226562 113.660156 C 158.921875 114.355469 159.441406 114.878906 160.480469 116.269531 C 162.910156 119.058594 163.257812 119.9375 164.648438 120.808594 C 164.992188 120.980469 166.382812 122.027344 168.289062 122.546875 C 171.066406 123.246094 170.171875 123.449219 173.816406 123.972656 C 175.378906 124.320312 176.199219 124.515625 176.890625 125.390625 C 177.238281 125.914062 178.015625 127.304688 177.84375 129.398438 C 177.671875 132.363281 177.316406 132.800781 176.972656 133.320312 C 176.796875 133.671875 174.605469 134.363281 173.441406 134.652344 C 171.449219 135.320312 168.292969 136.675781 168.117188 137.898438 C 167.945312 138.769531 168.636719 139.644531 169.335938 139.992188 C 170.027344 140.339844 170.992188 140.242188 172.902344 139.367188 C 174.230469 138.867188 175.0625 139.03125 177.804688 137.863281 C 179.710938 137.167969 180.207031 137.488281 180.914062 137.570312 C 181.617188 137.652344 182.074219 138.257812 183.117188 139.824219 C 184.679688 142.089844 185.441406 143.832031 185.441406 143.832031 C 186.519531 145.917969 188.945312 149.40625 189.46875 149.230469 C 189.8125 149.058594 189.8125 147.3125 189.640625 146.441406 C 189.292969 144 188.421875 142.605469 186.511719 138.769531 C 185.46875 136.851562 184.949219 135.804688 184.429688 134.410156 C 182.347656 129.703125 182.695312 128.476562 183.042969 127.605469 C 183.5625 126.734375 184.257812 126.210938 185.125 126.035156 C 187.035156 125.515625 188.945312 127.082031 189.988281 128.128906 C 192.074219 129.871094 191.550781 130.566406 193.289062 131.789062 C 199.003906 130.40625 203.289062 136.28125 204.675781 135.761719 C 205.542969 135.414062 205.722656 134.015625 205.722656 133.144531 C 205.722656 130.355469 197.15625 129.519531 194.550781 127.777344 C 192.46875 126.207031 188.433594 121.457031 186.695312 120.761719 C 184.441406 119.714844 182.347656 120.632812 179.046875 120.109375 C 177.3125 119.9375 173.492188 119.058594 169.5 117.140625 C 167.765625 116.269531 165.960938 114.921875 166.140625 113.527344 C 166.3125 112.480469 167.433594 111.910156 168.128906 111.734375 C 169.519531 111.210938 169.367188 112.316406 172.316406 112.488281 C 174.402344 112.488281 175.941406 112.324219 176.984375 112.148438 C 177.441406 112.078125 177.84375 111.914062 178.238281 111.742188 C 178.941406 111.890625 179.621094 112.050781 180.097656 112.265625 C 182.355469 113.3125 185.128906 114.007812 190.160156 114.53125 C 191.550781 114.703125 194.847656 114.359375 198.84375 114.183594 C 202.140625 114.011719 203.398438 114.757812 203.570312 113.539062 C 203.742188 113.015625 203.761719 112.121094 203.414062 111.949219 C 202.722656 111.425781 201.574219 110.527344 200.535156 110.703125 C 197.582031 111.226562 197.832031 111.191406 196.964844 110.839844 C 195.578125 110.492188 195.375 110.78125 193.8125 110.433594 C 192.421875 110.085938 192.125 111.011719 189.347656 111.1875 C 187.089844 111.1875 185.484375 110.402344 184.269531 109.878906 C 183.464844 109.476562 182.769531 109.273438 182.09375 109.082031 C 182.179688 109.027344 182.253906 108.957031 182.339844 108.90625 C 185.640625 107.160156 183.574219 106.546875 186.867188 104.628906 C 189.820312 102.882812 190.953125 100.972656 190.953125 100.449219 C 190.78125 99.925781 187.902344 100.808594 186.671875 101.265625 C 185.441406 101.722656 184.03125 102.386719 181.257812 104.132812 C 179.867188 105.003906 180.4375 105.808594 179.046875 106.507812 C 176.964844 107.554688 175.230469 107.730469 174.710938 107.730469 C 172.800781 107.902344 171.238281 107.378906 170.375 107.203125 C 168.988281 106.859375 168.988281 106.511719 168.117188 106.511719 C 166.554688 106.511719 165.34375 107.03125 164.476562 107.554688 C 162.914062 108.425781 162.910156 108.949219 161.871094 108.949219 C 160.652344 109.125 159.441406 108.257812 158.742188 107.734375 C 155.269531 104.59375 149.71875 98.660156 148.851562 97.964844 Z M 198.480469 97.980469 L 196.828125 98.828125 L 196.609375 100.132812 C 196.996094 100.847656 197.519531 101.585938 198.21875 102.074219 C 198.917969 102.597656 200.140625 102.773438 201.011719 102.246094 L 200.3125 101.019531 L 201.707031 101.191406 C 201.878906 100.136719 201.003906 99.089844 200.304688 98.5625 C 199.757812 98.234375 199.113281 98.066406 198.480469 97.980469 Z M 194.585938 99.445312 L 193.109375 99.699219 C 192.539062 100.195312 191.980469 100.828125 191.683594 101.574219 C 191.371094 102.464844 191.425781 103.6875 192.164062 104.535156 L 193.175781 103.613281 L 193.410156 105.007812 C 194.453125 104.960938 195.285156 103.871094 195.59375 102.980469 C 195.839844 102.199219 195.796875 101.324219 195.664062 100.550781 Z M 214.5 102.980469 C 213.074219 103.175781 212.0625 104.417969 211.757812 105.816406 C 211.46875 106.84375 211.59375 108.015625 211.832031 109.050781 L 213.210938 110.207031 L 215.136719 109.742188 C 215.792969 109.042969 216.40625 108.183594 216.703125 107.203125 C 217.28125 106.234375 217.125 104.296875 215.96875 103.601562 L 214.65625 104.921875 Z M 207.105469 106.21875 C 206.441406 106.117188 205.726562 106.214844 205.089844 106.621094 L 205.980469 108.214844 L 204.28125 107.984375 C 203.972656 109.378906 204.980469 110.773438 205.945312 111.355469 C 206.792969 111.964844 207.835938 112.226562 208.808594 112.324219 L 210.550781 111.324219 L 210.5625 109.136719 C 210.125 108.339844 209.550781 107.554688 208.796875 107.007812 C 208.371094 106.621094 207.765625 106.320312 207.105469 106.21875 Z M 219.472656 109.410156 C 219.125 109.378906 218.78125 109.394531 218.46875 109.464844 C 217.59375 109.546875 216.734375 109.960938 215.980469 110.460938 L 215.039062 112.5 L 216.226562 114.347656 C 217.105469 114.722656 218.09375 114.992188 219.019531 114.90625 C 220.382812 114.4375 221.984375 113.589844 222.402344 112.511719 L 220.644531 111.925781 L 222.0625 110.949219 C 221.621094 110.066406 220.519531 109.515625 219.472656 109.410156 Z M 208.945312 113.566406 C 207.984375 113.734375 206.960938 114.0625 206.140625 114.6875 C 205.210938 115.464844 204.460938 116.859375 204.71875 118.28125 L 206.4375 117.9375 L 205.785156 119.632812 C 206.972656 120.277344 208.601562 119.628906 209.53125 118.847656 C 210.316406 118.148438 210.847656 117.152344 211.210938 116.207031 L 210.742188 114.265625 Z M 213.640625 115.085938 L 212.53125 116.371094 C 212.488281 117.414062 212.578125 118.578125 213.027344 119.585938 C 213.453125 120.632812 214.683594 121.644531 215.996094 121.644531 L 216.039062 119.816406 L 217.464844 120.941406 C 218.351562 119.894531 218.082031 118.148438 217.65625 117.101562 C 217.269531 116.375 216.664062 115.761719 216.019531 115.246094 Z M 212.0625 130.882812 L 211.195312 133.257812 L 209.90625 130.957031 C 208.257812 132.015625 207.722656 134.121094 208.136719 136.015625 C 208.363281 137.445312 209.179688 138.820312 210.058594 139.957031 L 212.410156 140.601562 L 214.515625 138.925781 C 214.929688 137.6875 215.203125 136.285156 215.011719 134.90625 C 215.171875 133.382812 213.882812 131.082031 212.0625 130.882812 Z M 164.726562 133.851562 C 163.421875 133.699219 161.96875 134.855469 161.519531 136.054688 C 161.109375 136.835938 160.988281 137.785156 160.992188 138.695312 L 162.175781 140.609375 L 164.359375 140.613281 C 165.152344 140.078125 165.921875 139.402344 166.355469 138.574219 C 166.710938 137.171875 166.882812 135.355469 166.214844 134.417969 L 164.761719 135.574219 Z M 156.246094 134.769531 C 155.910156 134.75 155.578125 134.800781 155.273438 134.949219 L 155.652344 136.773438 L 153.953125 135.839844 C 153.332031 137.148438 153.816406 138.671875 154.8125 139.699219 C 155.507812 140.507812 156.554688 141.042969 157.542969 141.410156 L 159.265625 140.886719 L 159.929688 139.011719 C 159.710938 138.074219 159.332031 137.09375 158.679688 136.308594 C 158.3125 135.542969 157.261719 134.828125 156.246094 134.769531 Z M 221.09375 135.742188 C 220.121094 135.804688 219.152344 136.136719 218.464844 136.664062 C 217.429688 137.269531 216.613281 138.269531 215.96875 139.316406 L 215.964844 142.378906 L 218.476562 143.96875 C 219.773438 143.929688 221.136719 143.699219 222.234375 143.058594 C 223.648438 141.699219 225.140625 139.738281 225.046875 138.175781 L 222.542969 138.453125 L 223.738281 136.445312 C 223.042969 135.886719 222.0625 135.679688 221.09375 135.742188 Z M 203.9375 138.992188 C 202.640625 138.984375 201.199219 139.523438 200.367188 140.820312 L 202.367188 142.273438 L 200.144531 142.960938 C 200.554688 144.859375 202.585938 146 204.105469 146.164062 C 205.492188 146.433594 206.929688 146.15625 208.183594 145.722656 L 209.765625 143.496094 L 208.539062 140.785156 C 207.546875 140.0625 206.398438 139.417969 205.160156 139.179688 C 204.789062 139.0625 204.367188 138.996094 203.9375 138.992188 Z M 167.4375 140.925781 C 166.617188 140.851562 165.777344 141.027344 164.996094 141.289062 L 163.558594 143.195312 L 164.023438 144.828125 C 164.867188 145.4375 165.886719 146.003906 166.972656 146.175781 C 168.074219 146.390625 169.59375 145.902344 170.308594 144.796875 L 168.8125 143.773438 L 170.535156 143.191406 C 170.144531 141.871094 168.539062 141.140625 167.4375 140.925781 Z M 156.917969 142.523438 C 156.015625 142.457031 155.050781 142.507812 154.183594 142.84375 C 153.070312 143.132812 151.847656 144.234375 151.828125 145.75 L 153.644531 145.871094 L 152.519531 147.171875 C 153.515625 148.199219 155.222656 148.117188 156.234375 147.625 C 157.207031 147.246094 158.003906 146.507812 158.617188 145.742188 L 158.738281 143.730469 Z M 161.289062 145.183594 L 159.730469 146.308594 C 159.34375 147.207031 159.050781 148.253906 159.121094 149.285156 C 159.261719 150.492188 160.007812 151.882812 161.335938 152.449219 L 161.992188 150.8125 L 163.039062 152.292969 C 164.230469 151.648438 164.578125 149.917969 164.441406 148.707031 C 164.289062 147.664062 163.75 146.675781 163.160156 145.855469 Z M 218.722656 145.195312 L 215.699219 146.359375 L 215.0625 148.582031 C 215.601562 149.894531 216.375 151.273438 217.496094 152.257812 C 218.609375 153.304688 220.703125 153.839844 222.320312 153.085938 L 221.332031 150.824219 L 223.730469 151.386719 C 224.230469 149.589844 222.910156 147.59375 221.792969 146.546875 C 220.90625 145.871094 219.808594 145.460938 218.722656 145.195312 Z M 192.484375 146.683594 C 191.472656 146.769531 190.542969 147.875 190.386719 148.855469 C 190.191406 149.515625 190.242188 150.257812 190.386719 150.949219 L 191.585938 152.21875 L 193.242188 151.890625 C 193.765625 151.359375 194.246094 150.726562 194.449219 150.027344 C 194.503906 148.90625 194.359375 147.496094 193.707031 146.886719 L 192.777344 147.992188 Z M 211.671875 147.007812 L 209.066406 147.171875 C 207.976562 147.929688 206.894531 148.921875 206.238281 150.160156 C 205.53125 151.652344 205.398438 153.796875 206.519531 155.40625 L 208.445312 153.988281 L 208.597656 156.460938 C 210.425781 156.574219 212.066406 154.832031 212.773438 153.339844 C 213.34375 152.03125 213.429688 150.5 213.339844 149.128906 Z M 186.175781 148.695312 C 185.914062 148.730469 185.664062 148.824219 185.457031 148.984375 L 186.023438 150.316406 L 184.589844 149.867188 C 184.320312 150.953125 184.921875 152.042969 185.835938 152.667969 C 186.492188 153.175781 187.375 153.421875 188.183594 153.550781 L 189.410156 152.886719 L 189.628906 151.351562 C 189.316406 150.675781 188.875 149.988281 188.257812 149.492188 C 187.859375 148.96875 186.953125 148.585938 186.175781 148.695312 Z M 195.628906 151.648438 C 194.996094 151.71875 194.382812 151.980469 193.828125 152.296875 L 193.023438 153.980469 L 193.632812 155.144531 C 194.371094 155.480469 195.234375 155.75 196.082031 155.714844 C 196.957031 155.710938 198.035156 155.101562 198.414062 154.148438 L 197.117188 153.601562 L 198.332031 152.890625 C 197.835938 151.949219 196.5 151.640625 195.628906 151.648438 Z M 187.871094 154.488281 C 187.175781 154.578125 186.453125 154.765625 185.839844 155.15625 C 185.042969 155.550781 184.28125 156.578125 184.5 157.734375 L 185.894531 157.550781 L 185.238281 158.707031 C 186.152344 159.332031 187.4375 159.007812 188.128906 158.476562 C 188.8125 158.039062 189.308594 157.355469 189.65625 156.679688 L 189.445312 155.128906 Z M 191.613281 155.835938 L 190.597656 156.9375 C 190.441406 157.683594 190.375 158.523438 190.585938 159.296875 C 190.878906 160.191406 191.664062 161.136719 192.761719 161.359375 L 193.007812 160.011719 L 194.035156 160.980469 C 194.839844 160.304688 194.839844 158.929688 194.550781 158.035156 C 194.273438 157.261719 193.710938 156.597656 193.140625 156.0625 Z M 191.613281 155.835938 " fill-opacity="1" fill-rule="nonzero"/></g><g fill="#ffffff" fill-opacity="1"><g transform="translate(95.12169, 204.587377)"><g><path d="M 10.828125 0.347656 C 16.515625 0.347656 20.136719 -1.671875 20.136719 -5.015625 C 20.136719 -12.152344 5.289062 -8.832031 5.289062 -12.625 C 5.289062 -14.121094 7.785156 -14.519531 10.605469 -14.519531 C 13.546875 -14.519531 16.542969 -13.796875 18.386719 -12.726562 L 18.386719 -16.417969 C 16.417969 -17.242188 13.296875 -17.816406 10.453125 -17.816406 C 5.390625 -17.816406 1.273438 -16.042969 1.273438 -12.675781 C 1.273438 -5.464844 16.09375 -8.632812 16.09375 -4.988281 C 16.09375 -3.441406 13.921875 -2.917969 10.753906 -2.917969 C 7.160156 -2.917969 3.71875 -3.71875 1.097656 -5.390625 L 0.921875 -1.421875 C 3.644531 -0.347656 7.808594 0.347656 10.828125 0.347656 Z M 10.828125 0.347656 "/></g></g></g><g fill="#ffffff" fill-opacity="1"><g transform="translate(130.701487, 204.587377)"><g><path d="M -0.300781 0 L 4.589844 0 C 4.691406 -0.648438 5.113281 -1.472656 5.714844 -2.746094 L 6.4375 -4.09375 L 16.34375 -4.09375 L 17.066406 -2.769531 C 17.789062 -1.472656 18.089844 -0.671875 18.1875 0 L 23.078125 0 C 22.40625 -0.972656 21.433594 -2.570312 20.609375 -4.191406 L 15.820312 -13.296875 C 15.144531 -14.671875 14.695312 -16.34375 14.472656 -17.464844 L 8.359375 -17.464844 C 8.183594 -16.492188 7.757812 -14.921875 6.9375 -13.273438 L 2.195312 -4.191406 C 1.347656 -2.59375 0.375 -0.972656 -0.300781 0 Z M 7.882812 -7.0625 L 10.179688 -11.503906 C 10.628906 -12.476562 10.929688 -13.273438 11.277344 -14.273438 L 11.503906 -14.273438 C 11.828125 -13.296875 12.152344 -12.449219 12.574219 -11.527344 L 14.894531 -7.0625 Z M 7.882812 -7.0625 "/></g></g></g><g fill="#ffffff" fill-opacity="1"><g transform="translate(167.952719, 204.587377)"><g><path d="M 19.285156 0.347656 C 20.609375 0.347656 21.707031 -0.273438 22.253906 -1.074219 L 22.105469 -5.589844 C 21.582031 -4.539062 21.109375 -3.96875 19.636719 -3.96875 C 16.617188 -3.96875 17.691406 -9.207031 11.578125 -9.207031 L 11.203125 -9.207031 L 11.203125 -9.457031 L 12.199219 -9.457031 C 17.214844 -9.457031 19.785156 -11.003906 19.785156 -14.695312 C 19.785156 -15.96875 19.5625 -16.640625 19.085938 -17.464844 L 14.746094 -17.464844 C 15.320312 -16.667969 15.59375 -15.71875 15.59375 -14.722656 C 15.59375 -12.125 13.574219 -10.753906 10.078125 -10.753906 L 6.386719 -10.753906 L 6.386719 -13.523438 C 6.386719 -15.195312 6.5625 -16.515625 6.8125 -17.464844 L 2.019531 -17.464844 C 2.320312 -16.492188 2.496094 -14.96875 2.496094 -13.273438 L 2.496094 -4.191406 C 2.496094 -2.496094 2.320312 -0.972656 2.019531 0 L 6.8125 0 C 6.535156 -0.972656 6.386719 -2.59375 6.386719 -4.292969 L 6.386719 -7.535156 C 6.960938 -7.734375 8.558594 -7.910156 9.480469 -7.910156 C 16.691406 -7.910156 12.726562 0.347656 19.285156 0.347656 Z M 19.285156 0.347656 "/></g></g></g><g fill="#ffffff" fill-opacity="1"><g transform="translate(205.129104, 204.587377)"><g><path d="M 11.703125 0.347656 C 17.714844 0.347656 21.109375 -2.667969 21.109375 -7.636719 L 21.109375 -13.273438 C 21.109375 -14.96875 21.28125 -16.492188 21.558594 -17.464844 L 16.765625 -17.464844 C 17.042969 -16.492188 17.214844 -14.894531 17.214844 -13.222656 L 17.214844 -8.207031 C 17.214844 -5.039062 14.96875 -3.042969 11.703125 -3.042969 C 8.433594 -3.042969 6.210938 -5.039062 6.210938 -8.207031 L 6.210938 -13.222656 C 6.210938 -14.894531 6.386719 -16.492188 6.636719 -17.464844 L 1.871094 -17.464844 C 2.144531 -16.492188 2.320312 -14.96875 2.320312 -13.273438 L 2.320312 -7.636719 C 2.320312 -2.546875 5.863281 0.347656 11.703125 0.347656 Z M 11.703125 0.347656 "/></g></g></g><g fill="#ffffff" fill-opacity="1"><g transform="translate(243.02895, 204.587377)"><g><path d="M 20.058594 0.375 C 21.332031 0.375 22.53125 -0.148438 23.105469 -0.921875 L 22.929688 -5.238281 C 22.480469 -4.167969 21.882812 -3.492188 20.535156 -3.492188 C 17.789062 -3.492188 18.386719 -7.910156 13.148438 -7.910156 L 12.949219 -7.910156 L 12.949219 -8.109375 L 14.472656 -8.109375 C 18.488281 -8.109375 21.207031 -10.078125 21.207031 -12.898438 C 21.207031 -15.84375 18.3125 -17.464844 14.121094 -17.464844 L 2.046875 -17.464844 C 2.320312 -16.492188 2.496094 -14.96875 2.496094 -13.273438 L 2.496094 -4.191406 C 2.496094 -2.496094 2.320312 -0.996094 2.046875 0 L 6.835938 0 C 6.535156 -0.996094 6.386719 -2.34375 6.386719 -4.015625 L 6.386719 -6.613281 C 6.960938 -6.785156 8.933594 -6.835938 9.65625 -6.835938 C 16.816406 -6.835938 13.546875 0.375 20.058594 0.375 Z M 6.386719 -9.605469 L 6.386719 -14.097656 L 13.722656 -14.097656 C 15.867188 -14.097656 17.316406 -13.25 17.316406 -11.851562 C 17.316406 -10.40625 15.84375 -9.605469 13.546875 -9.605469 Z M 6.386719 -9.605469 "/></g></g></g><g fill="#ffffff" fill-opacity="1"><g transform="translate(280.878901, 204.587377)"><g><path d="M -0.300781 0 L 4.589844 0 C 4.691406 -0.648438 5.113281 -1.472656 5.714844 -2.746094 L 6.4375 -4.09375 L 16.34375 -4.09375 L 17.066406 -2.769531 C 17.789062 -1.472656 18.089844 -0.671875 18.1875 0 L 23.078125 0 C 22.40625 -0.972656 21.433594 -2.570312 20.609375 -4.191406 L 15.820312 -13.296875 C 15.144531 -14.671875 14.695312 -16.34375 14.472656 -17.464844 L 8.359375 -17.464844 C 8.183594 -16.492188 7.757812 -14.921875 6.9375 -13.273438 L 2.195312 -4.191406 C 1.347656 -2.59375 0.375 -0.972656 -0.300781 0 Z M 7.882812 -7.0625 L 10.179688 -11.503906 C 10.628906 -12.476562 10.929688 -13.273438 11.277344 -14.273438 L 11.503906 -14.273438 C 11.828125 -13.296875 12.152344 -12.449219 12.574219 -11.527344 L 14.894531 -7.0625 Z M 7.882812 -7.0625 "/></g></g></g><g fill="#ffffff" fill-opacity="1"><g transform="translate(67.966769, 239.214654)"><g><path d="M 2.019531 0 L 12.101562 0 C 18.238281 0 22.253906 -3.292969 22.253906 -8.734375 C 22.253906 -14.171875 18.238281 -17.464844 12.101562 -17.464844 L 2.019531 -17.464844 C 2.296875 -16.492188 2.496094 -14.96875 2.496094 -13.273438 L 2.496094 -4.191406 C 2.496094 -2.496094 2.320312 -0.972656 2.019531 0 Z M 6.363281 -3.417969 L 6.363281 -14.070312 L 11.828125 -14.070312 C 15.59375 -14.070312 18.261719 -12.074219 18.261719 -8.734375 C 18.261719 -5.390625 15.59375 -3.417969 11.828125 -3.417969 Z M 6.363281 -3.417969 "/></g></g></g><g fill="#ffffff" fill-opacity="1"><g transform="translate(105.816716, 239.214654)"><g><path d="M 2.019531 0 L 19.609375 0 L 20.335938 -3.96875 C 19.609375 -3.566406 18.488281 -3.320312 16.515625 -3.320312 L 6.363281 -3.320312 L 6.363281 -7.136719 L 14.394531 -7.136719 C 15.59375 -7.136719 16.417969 -7.085938 17.015625 -6.984375 L 17.015625 -10.527344 C 16.417969 -10.429688 15.59375 -10.378906 14.394531 -10.378906 L 6.363281 -10.378906 L 6.363281 -14.148438 L 16.34375 -14.148438 C 18.0625 -14.148438 19.160156 -13.972656 19.734375 -13.699219 L 19.113281 -17.464844 L 2.019531 -17.464844 C 2.296875 -16.492188 2.496094 -14.96875 2.496094 -13.273438 L 2.496094 -4.191406 C 2.496094 -2.496094 2.320312 -0.972656 2.019531 0 Z M 2.019531 0 "/></g></g></g><g fill="#ffffff" fill-opacity="1"><g transform="translate(141.69587, 239.214654)"><g><path d="M 15.167969 0.375 C 16.714844 0.375 18.289062 -0.0507812 18.914062 -0.175781 L 19.136719 -4.015625 C 18.089844 -3.59375 16.117188 -3.292969 13.972656 -3.292969 L 6.363281 -3.292969 L 6.363281 -12.875 C 6.363281 -14.570312 6.5625 -16.492188 6.8125 -17.464844 L 2.019531 -17.464844 C 2.296875 -16.492188 2.496094 -14.96875 2.496094 -13.273438 L 2.496094 -4.191406 C 2.496094 -2.496094 2.320312 -0.625 2.019531 0.375 C 3.167969 0.0507812 5.089844 -0.347656 7.386719 -0.347656 C 10.453125 -0.347656 12.300781 0.375 15.167969 0.375 Z M 15.167969 0.375 "/></g></g></g><g fill="#ffffff" fill-opacity="1"><g transform="translate(176.003376, 239.214654)"><g><path d="M 2.019531 0 L 6.8125 0 C 6.535156 -0.972656 6.363281 -2.496094 6.363281 -4.191406 L 6.363281 -13.273438 C 6.363281 -14.96875 6.535156 -16.492188 6.8125 -17.464844 L 2.019531 -17.464844 C 2.296875 -16.492188 2.46875 -14.96875 2.46875 -13.273438 L 2.46875 -4.191406 C 2.46875 -2.496094 2.320312 -0.972656 2.019531 0 Z M 2.019531 0 "/></g></g></g><g fill="#ffffff" fill-opacity="1"><g transform="translate(199.334324, 239.214654)"><g><path d="M 12.277344 0.347656 C 16.316406 0.347656 19.859375 -0.972656 21.757812 -3.019531 L 21.757812 -10.203125 L 11.726562 -10.203125 L 11.550781 -6.8125 C 12.027344 -6.960938 13.125 -7.0625 13.847656 -7.0625 L 18.0625 -7.0625 L 18.0625 -4.964844 C 16.890625 -3.742188 14.644531 -2.992188 12.375 -2.992188 C 7.984375 -2.992188 4.964844 -5.164062 4.964844 -8.683594 C 4.964844 -12.277344 8.183594 -14.496094 12.75 -14.496094 C 15.246094 -14.496094 17.964844 -13.972656 19.5625 -13 L 19.761719 -16.515625 C 17.738281 -17.289062 15.21875 -17.816406 12.324219 -17.816406 C 5.761719 -17.816406 1.121094 -14.246094 1.121094 -8.683594 C 1.121094 -3.144531 5.664062 0.347656 12.277344 0.347656 Z M 12.277344 0.347656 "/></g></g></g><g fill="#ffffff" fill-opacity="1"><g transform="translate(236.785126, 239.214654)"><g><path d="M 2.019531 0 L 6.8125 0 C 6.488281 -1.046875 6.363281 -2.394531 6.363281 -4.042969 L 6.363281 -7.136719 L 17.265625 -7.136719 L 17.265625 -4.042969 C 17.265625 -2.34375 17.066406 -0.972656 16.816406 0 L 21.605469 0 C 21.308594 -0.972656 21.15625 -2.496094 21.15625 -4.191406 L 21.15625 -13.273438 C 21.15625 -14.96875 21.332031 -16.492188 21.605469 -17.464844 L 16.816406 -17.464844 C 17.089844 -16.492188 17.265625 -15.121094 17.265625 -13.421875 L 17.265625 -10.378906 L 6.363281 -10.378906 L 6.363281 -13.421875 C 6.363281 -15.09375 6.535156 -16.441406 6.8125 -17.464844 L 2.019531 -17.464844 C 2.296875 -16.492188 2.496094 -14.96875 2.496094 -13.273438 L 2.496094 -4.191406 C 2.496094 -2.496094 2.320312 -0.972656 2.019531 0 Z M 2.019531 0 "/></g></g></g><g fill="#ffffff" fill-opacity="1"><g transform="translate(274.884554, 239.214654)"><g><path d="M 7.808594 0 L 12.601562 0 C 12.300781 -0.996094 12.152344 -2.496094 12.152344 -4.191406 L 12.152344 -14.070312 L 16.46875 -14.070312 C 18.089844 -14.070312 19.039062 -13.921875 19.859375 -13.648438 L 19.085938 -17.464844 L 1.296875 -17.464844 L 0.523438 -13.648438 C 1.371094 -13.945312 2.296875 -14.070312 3.917969 -14.070312 L 8.257812 -14.070312 L 8.257812 -4.191406 C 8.257812 -2.496094 8.082031 -0.996094 7.808594 0 Z M 7.808594 0 "/></g></g></g><g fill="#ffffff" fill-opacity="1"><g transform="translate(309.715953, 239.214654)"><g><path d="M 10.828125 0.347656 C 16.515625 0.347656 20.136719 -1.671875 20.136719 -5.015625 C 20.136719 -12.152344 5.289062 -8.832031 5.289062 -12.625 C 5.289062 -14.121094 7.785156 -14.519531 10.605469 -14.519531 C 13.546875 -14.519531 16.542969 -13.796875 18.386719 -12.726562 L 18.386719 -16.417969 C 16.417969 -17.242188 13.296875 -17.816406 10.453125 -17.816406 C 5.390625 -17.816406 1.273438 -16.042969 1.273438 -12.675781 C 1.273438 -5.464844 16.09375 -8.632812 16.09375 -4.988281 C 16.09375 -3.441406 13.921875 -2.917969 10.753906 -2.917969 C 7.160156 -2.917969 3.71875 -3.71875 1.097656 -5.390625 L 0.921875 -1.421875 C 3.644531 -0.347656 7.808594 0.347656 10.828125 0.347656 Z M 10.828125 0.347656 "/></g></g></g><g fill="#ef7993" fill-opacity="1"><g transform="translate(25.267409, 269.547304)"><g/></g></g><g fill="#ef7993" fill-opacity="1"><g transform="translate(33.640436, 269.547304)"><g><path d="M -0.117188 0 L 1.789062 0 C 1.828125 -0.253906 1.992188 -0.574219 2.226562 -1.070312 L 2.507812 -1.59375 L 6.367188 -1.59375 L 6.648438 -1.078125 C 6.929688 -0.574219 7.046875 -0.261719 7.085938 0 L 8.992188 0 C 8.730469 -0.378906 8.351562 -1 8.027344 -1.632812 L 6.164062 -5.179688 C 5.902344 -5.714844 5.726562 -6.367188 5.636719 -6.804688 L 3.257812 -6.804688 C 3.1875 -6.425781 3.023438 -5.8125 2.703125 -5.171875 L 0.855469 -1.632812 C 0.523438 -1.011719 0.144531 -0.378906 -0.117188 0 Z M 3.070312 -2.75 L 3.964844 -4.480469 C 4.140625 -4.859375 4.257812 -5.171875 4.394531 -5.558594 L 4.480469 -5.558594 C 4.609375 -5.179688 4.734375 -4.851562 4.898438 -4.492188 L 5.804688 -2.75 Z M 3.070312 -2.75 "/></g></g></g><g fill="#ef7993" fill-opacity="1"><g transform="translate(48.154775, 269.547304)"><g/></g></g><g fill="#ef7993" fill-opacity="1"><g transform="translate(56.525673, 269.547304)"><g><path d="M 2.128906 0.136719 C 4.257812 0.136719 5.414062 -0.835938 5.414062 -2.828125 L 5.414062 -5.171875 C 5.414062 -5.832031 5.484375 -6.425781 5.597656 -6.804688 L 3.722656 -6.804688 C 3.828125 -6.425781 3.898438 -5.832031 3.898438 -5.171875 L 3.898438 -3.089844 C 3.898438 -1.835938 3.265625 -1.070312 1.992188 -1.070312 C 1.300781 -1.070312 0.730469 -1.246094 0.320312 -1.554688 L 0.117188 -0.261719 C 0.652344 -0.0390625 1.410156 0.136719 2.128906 0.136719 Z M 2.128906 0.136719 "/></g></g></g><g fill="#ef7993" fill-opacity="1"><g transform="translate(68.483484, 269.547304)"><g><path d="M -0.117188 0 L 1.789062 0 C 1.828125 -0.253906 1.992188 -0.574219 2.226562 -1.070312 L 2.507812 -1.59375 L 6.367188 -1.59375 L 6.648438 -1.078125 C 6.929688 -0.574219 7.046875 -0.261719 7.085938 0 L 8.992188 0 C 8.730469 -0.378906 8.351562 -1 8.027344 -1.632812 L 6.164062 -5.179688 C 5.902344 -5.714844 5.726562 -6.367188 5.636719 -6.804688 L 3.257812 -6.804688 C 3.1875 -6.425781 3.023438 -5.8125 2.703125 -5.171875 L 0.855469 -1.632812 C 0.523438 -1.011719 0.144531 -0.378906 -0.117188 0 Z M 3.070312 -2.75 L 3.964844 -4.480469 C 4.140625 -4.859375 4.257812 -5.171875 4.394531 -5.558594 L 4.480469 -5.558594 C 4.609375 -5.179688 4.734375 -4.851562 4.898438 -4.492188 L 5.804688 -2.75 Z M 3.070312 -2.75 "/></g></g></g><g fill="#ef7993" fill-opacity="1"><g transform="translate(82.997823, 269.547304)"><g><path d="M 0.789062 0 L 2.652344 0 C 2.535156 -0.378906 2.480469 -0.953125 2.480469 -1.605469 L 2.488281 -3.675781 L 2.566406 -3.675781 C 2.808594 -2.34375 3.957031 -1.738281 5.511719 -1.738281 C 7.125 -1.738281 8.320312 -2.691406 8.320312 -4.316406 C 8.320312 -5.917969 6.96875 -6.804688 5.140625 -6.804688 L 0.789062 -6.804688 C 0.894531 -6.425781 0.972656 -5.832031 0.972656 -5.171875 L 0.972656 -1.632812 C 0.972656 -0.972656 0.902344 -0.378906 0.789062 0 Z M 4.9375 -2.972656 C 3.714844 -2.972656 2.5 -3.664062 2.488281 -4.851562 L 2.488281 -5.511719 C 3.257812 -5.589844 4.035156 -5.597656 4.910156 -5.597656 C 6.113281 -5.597656 6.804688 -5.113281 6.804688 -4.316406 C 6.804688 -3.480469 5.929688 -2.972656 4.9375 -2.972656 Z M 4.9375 -2.972656 "/></g></g></g><g fill="#ef7993" fill-opacity="1"><g transform="translate(97.22054, 269.547304)"><g><path d="M -0.117188 0 L 1.789062 0 C 1.828125 -0.253906 1.992188 -0.574219 2.226562 -1.070312 L 2.507812 -1.59375 L 6.367188 -1.59375 L 6.648438 -1.078125 C 6.929688 -0.574219 7.046875 -0.261719 7.085938 0 L 8.992188 0 C 8.730469 -0.378906 8.351562 -1 8.027344 -1.632812 L 6.164062 -5.179688 C 5.902344 -5.714844 5.726562 -6.367188 5.636719 -6.804688 L 3.257812 -6.804688 C 3.1875 -6.425781 3.023438 -5.8125 2.703125 -5.171875 L 0.855469 -1.632812 C 0.523438 -1.011719 0.144531 -0.378906 -0.117188 0 Z M 3.070312 -2.75 L 3.964844 -4.480469 C 4.140625 -4.859375 4.257812 -5.171875 4.394531 -5.558594 L 4.480469 -5.558594 C 4.609375 -5.179688 4.734375 -4.851562 4.898438 -4.492188 L 5.804688 -2.75 Z M 3.070312 -2.75 "/></g></g></g><g fill="#ef7993" fill-opacity="1"><g transform="translate(111.734882, 269.547304)"><g><path d="M 0.789062 0 L 2.652344 0 C 2.566406 -0.339844 2.480469 -1.058594 2.480469 -1.738281 L 2.480469 -4.929688 L 2.59375 -4.929688 L 7.320312 0 L 8.710938 0 L 8.710938 -5.171875 C 8.710938 -5.832031 8.777344 -6.425781 8.882812 -6.804688 L 7.019531 -6.804688 C 7.105469 -6.492188 7.191406 -5.871094 7.191406 -5.199219 L 7.191406 -2.03125 L 7.066406 -2.03125 L 2.546875 -6.804688 L 0.789062 -6.804688 C 0.902344 -6.425781 0.972656 -5.832031 0.972656 -5.171875 L 0.972656 -1.632812 C 0.972656 -0.972656 0.894531 -0.378906 0.789062 0 Z M 0.789062 0 "/></g></g></g><g fill="#ef7993" fill-opacity="1"><g transform="translate(127.046309, 269.547304)"><g><path d="M 0.789062 0 L 7.640625 0 L 7.921875 -1.546875 C 7.640625 -1.390625 7.203125 -1.292969 6.433594 -1.292969 L 2.480469 -1.292969 L 2.480469 -2.78125 L 5.609375 -2.78125 C 6.074219 -2.78125 6.394531 -2.761719 6.628906 -2.722656 L 6.628906 -4.101562 C 6.394531 -4.0625 6.074219 -4.042969 5.609375 -4.042969 L 2.480469 -4.042969 L 2.480469 -5.511719 L 6.367188 -5.511719 C 7.039062 -5.511719 7.464844 -5.445312 7.6875 -5.335938 L 7.445312 -6.804688 L 0.789062 -6.804688 C 0.894531 -6.425781 0.972656 -5.832031 0.972656 -5.171875 L 0.972656 -1.632812 C 0.972656 -0.972656 0.902344 -0.378906 0.789062 0 Z M 0.789062 0 "/></g></g></g><g fill="#ef7993" fill-opacity="1"><g transform="translate(141.02601, 269.547304)"><g><path d="M 4.21875 0.136719 C 6.433594 0.136719 7.84375 -0.652344 7.84375 -1.953125 C 7.84375 -4.734375 2.0625 -3.441406 2.0625 -4.917969 C 2.0625 -5.5 3.03125 -5.65625 4.132812 -5.65625 C 5.277344 -5.65625 6.445312 -5.375 7.164062 -4.957031 L 7.164062 -6.394531 C 6.394531 -6.71875 5.179688 -6.941406 4.074219 -6.941406 C 2.101562 -6.941406 0.496094 -6.25 0.496094 -4.9375 C 0.496094 -2.128906 6.269531 -3.363281 6.269531 -1.945312 C 6.269531 -1.339844 5.425781 -1.136719 4.191406 -1.136719 C 2.789062 -1.136719 1.449219 -1.449219 0.425781 -2.101562 L 0.359375 -0.554688 C 1.417969 -0.136719 3.042969 0.136719 4.21875 0.136719 Z M 4.21875 0.136719 "/></g></g></g><g fill="#ef7993" fill-opacity="1"><g transform="translate(154.889068, 269.547304)"><g><path d="M 0.789062 0 L 7.640625 0 L 7.921875 -1.546875 C 7.640625 -1.390625 7.203125 -1.292969 6.433594 -1.292969 L 2.480469 -1.292969 L 2.480469 -2.78125 L 5.609375 -2.78125 C 6.074219 -2.78125 6.394531 -2.761719 6.628906 -2.722656 L 6.628906 -4.101562 C 6.394531 -4.0625 6.074219 -4.042969 5.609375 -4.042969 L 2.480469 -4.042969 L 2.480469 -5.511719 L 6.367188 -5.511719 C 7.039062 -5.511719 7.464844 -5.445312 7.6875 -5.335938 L 7.445312 -6.804688 L 0.789062 -6.804688 C 0.894531 -6.425781 0.972656 -5.832031 0.972656 -5.171875 L 0.972656 -1.632812 C 0.972656 -0.972656 0.902344 -0.378906 0.789062 0 Z M 0.789062 0 "/></g></g></g><g fill="#ef7993" fill-opacity="1"><g transform="translate(168.868769, 269.547304)"><g/></g></g><g fill="#ef7993" fill-opacity="1"><g transform="translate(177.23967, 269.547304)"><g><path d="M 4.917969 0.136719 C 6.152344 0.136719 7.203125 -0.0859375 7.992188 -0.457031 L 7.992188 -2.023438 C 7.328125 -1.507812 6.28125 -1.1875 5.191406 -1.1875 C 3.363281 -1.1875 1.964844 -1.972656 1.964844 -3.390625 C 1.964844 -4.78125 3.324219 -5.617188 5.074219 -5.617188 C 6.113281 -5.617188 7.046875 -5.308594 7.59375 -4.890625 L 7.71875 -6.347656 C 7.039062 -6.699219 6.007812 -6.941406 4.890625 -6.941406 C 2.410156 -6.941406 0.4375 -5.667969 0.4375 -3.390625 C 0.4375 -1.109375 2.449219 0.136719 4.917969 0.136719 Z M 4.917969 0.136719 "/></g></g></g><g fill="#ef7993" fill-opacity="1"><g transform="translate(191.190213, 269.547304)"><g><path d="M 4.558594 0.136719 C 6.902344 0.136719 8.222656 -1.039062 8.222656 -2.972656 L 8.222656 -5.171875 C 8.222656 -5.832031 8.292969 -6.425781 8.398438 -6.804688 L 6.53125 -6.804688 C 6.640625 -6.425781 6.707031 -5.804688 6.707031 -5.152344 L 6.707031 -3.199219 C 6.707031 -1.964844 5.832031 -1.1875 4.558594 -1.1875 C 3.285156 -1.1875 2.421875 -1.964844 2.421875 -3.199219 L 2.421875 -5.152344 C 2.421875 -5.804688 2.488281 -6.425781 2.585938 -6.804688 L 0.730469 -6.804688 C 0.835938 -6.425781 0.902344 -5.832031 0.902344 -5.171875 L 0.902344 -2.972656 C 0.902344 -0.992188 2.285156 0.136719 4.558594 0.136719 Z M 4.558594 0.136719 "/></g></g></g><g fill="#ef7993" fill-opacity="1"><g transform="translate(205.957291, 269.547304)"><g><path d="M 5.910156 0.144531 C 6.511719 0.144531 7.125 -0.0195312 7.367188 -0.0664062 L 7.457031 -1.566406 C 7.046875 -1.398438 6.28125 -1.28125 5.445312 -1.28125 L 2.480469 -1.28125 L 2.480469 -5.015625 C 2.480469 -5.675781 2.554688 -6.425781 2.652344 -6.804688 L 0.789062 -6.804688 C 0.894531 -6.425781 0.972656 -5.832031 0.972656 -5.171875 L 0.972656 -1.632812 C 0.972656 -0.972656 0.902344 -0.242188 0.789062 0.144531 C 1.234375 0.0195312 1.984375 -0.136719 2.878906 -0.136719 C 4.074219 -0.136719 4.792969 0.144531 5.910156 0.144531 Z M 5.910156 0.144531 "/></g></g></g><g fill="#ef7993" fill-opacity="1"><g transform="translate(219.324585, 269.547304)"><g><path d="M 0.789062 0 L 2.652344 0 C 2.546875 -0.378906 2.480469 -0.972656 2.480469 -1.632812 L 2.480469 -5.171875 C 2.480469 -5.832031 2.546875 -6.425781 2.652344 -6.804688 L 0.789062 -6.804688 C 0.894531 -6.425781 0.960938 -5.832031 0.960938 -5.171875 L 0.960938 -1.632812 C 0.960938 -0.972656 0.902344 -0.378906 0.789062 0 Z M 0.789062 0 "/></g></g></g><g fill="#ef7993" fill-opacity="1"><g transform="translate(228.414817, 269.547304)"><g><path d="M 0.789062 0 L 2.652344 0 C 2.566406 -0.339844 2.480469 -1.058594 2.480469 -1.738281 L 2.480469 -4.929688 L 2.59375 -4.929688 L 7.320312 0 L 8.710938 0 L 8.710938 -5.171875 C 8.710938 -5.832031 8.777344 -6.425781 8.882812 -6.804688 L 7.019531 -6.804688 C 7.105469 -6.492188 7.191406 -5.871094 7.191406 -5.199219 L 7.191406 -2.03125 L 7.066406 -2.03125 L 2.546875 -6.804688 L 0.789062 -6.804688 C 0.902344 -6.425781 0.972656 -5.832031 0.972656 -5.171875 L 0.972656 -1.632812 C 0.972656 -0.972656 0.894531 -0.378906 0.789062 0 Z M 0.789062 0 "/></g></g></g><g fill="#ef7993" fill-opacity="1"><g transform="translate(243.726244, 269.547304)"><g><path d="M -0.117188 0 L 1.789062 0 C 1.828125 -0.253906 1.992188 -0.574219 2.226562 -1.070312 L 2.507812 -1.59375 L 6.367188 -1.59375 L 6.648438 -1.078125 C 6.929688 -0.574219 7.046875 -0.261719 7.085938 0 L 8.992188 0 C 8.730469 -0.378906 8.351562 -1 8.027344 -1.632812 L 6.164062 -5.179688 C 5.902344 -5.714844 5.726562 -6.367188 5.636719 -6.804688 L 3.257812 -6.804688 C 3.1875 -6.425781 3.023438 -5.8125 2.703125 -5.171875 L 0.855469 -1.632812 C 0.523438 -1.011719 0.144531 -0.378906 -0.117188 0 Z M 3.070312 -2.75 L 3.964844 -4.480469 C 4.140625 -4.859375 4.257812 -5.171875 4.394531 -5.558594 L 4.480469 -5.558594 C 4.609375 -5.179688 4.734375 -4.851562 4.898438 -4.492188 L 5.804688 -2.75 Z M 3.070312 -2.75 "/></g></g></g><g fill="#ef7993" fill-opacity="1"><g transform="translate(258.240575, 269.547304)"><g><path d="M 7.816406 0.144531 C 8.3125 0.144531 8.777344 -0.0585938 9 -0.359375 L 8.933594 -2.042969 C 8.757812 -1.625 8.523438 -1.359375 8 -1.359375 C 6.929688 -1.359375 7.164062 -3.082031 5.121094 -3.082031 L 5.046875 -3.082031 L 5.046875 -3.160156 L 5.636719 -3.160156 C 7.203125 -3.160156 8.261719 -3.925781 8.261719 -5.027344 C 8.261719 -6.171875 7.136719 -6.804688 5.5 -6.804688 L 0.796875 -6.804688 C 0.902344 -6.425781 0.972656 -5.832031 0.972656 -5.171875 L 0.972656 -1.632812 C 0.972656 -0.972656 0.902344 -0.390625 0.796875 0 L 2.664062 0 C 2.546875 -0.390625 2.488281 -0.914062 2.488281 -1.566406 L 2.488281 -2.574219 C 2.710938 -2.644531 3.480469 -2.664062 3.761719 -2.664062 C 6.550781 -2.664062 5.277344 0.144531 7.816406 0.144531 Z M 2.488281 -3.742188 L 2.488281 -5.492188 L 5.347656 -5.492188 C 6.183594 -5.492188 6.746094 -5.160156 6.746094 -4.617188 C 6.746094 -4.054688 6.171875 -3.742188 5.277344 -3.742188 Z M 2.488281 -3.742188 "/></g></g></g><g fill="#ef7993" fill-opacity="1"><g transform="translate(272.988214, 269.547304)"><g><path d="M 3.390625 -0.0078125 L 5.21875 -0.0078125 C 5.132812 -0.339844 5.066406 -0.816406 5.066406 -1.429688 L 5.066406 -2.554688 L 7.464844 -5.492188 C 7.894531 -6.046875 8.292969 -6.511719 8.59375 -6.804688 L 6.5625 -6.804688 C 6.414062 -6.53125 6.242188 -6.191406 5.871094 -5.707031 L 4.34375 -3.808594 L 4.257812 -3.808594 L 2.730469 -5.707031 C 2.382812 -6.191406 2.195312 -6.53125 2.050781 -6.804688 L 0.0078125 -6.804688 C 0.320312 -6.511719 0.71875 -6.046875 1.148438 -5.492188 L 3.546875 -2.566406 L 3.546875 -1.4375 C 3.546875 -0.828125 3.480469 -0.339844 3.390625 -0.0078125 Z M 3.390625 -0.0078125 "/></g></g></g><g fill="#ef7993" fill-opacity="1"><g transform="translate(287.24009, 269.547304)"><g/></g></g><g fill="#ef7993" fill-opacity="1"><g transform="translate(295.610981, 269.547304)"><g><path d="M 4.644531 0.136719 C 7.078125 0.136719 8.855469 -1.195312 8.855469 -3.402344 C 8.855469 -5.609375 7.078125 -6.941406 4.644531 -6.941406 C 2.214844 -6.941406 0.4375 -5.609375 0.4375 -3.402344 C 0.4375 -1.195312 2.214844 0.136719 4.644531 0.136719 Z M 4.644531 -1.070312 C 3.121094 -1.070312 1.972656 -1.964844 1.972656 -3.402344 C 1.972656 -4.851562 3.121094 -5.734375 4.644531 -5.734375 C 6.171875 -5.734375 7.320312 -4.851562 7.320312 -3.402344 C 7.320312 -1.964844 6.171875 -1.070312 4.644531 -1.070312 Z M 4.644531 -1.070312 "/></g></g></g><g fill="#ef7993" fill-opacity="1"><g transform="translate(310.543299, 269.547304)"><g><path d="M -0.117188 0 L 1.789062 0 C 1.828125 -0.253906 1.992188 -0.574219 2.226562 -1.070312 L 2.507812 -1.59375 L 6.367188 -1.59375 L 6.648438 -1.078125 C 6.929688 -0.574219 7.046875 -0.261719 7.085938 0 L 8.992188 0 C 8.730469 -0.378906 8.351562 -1 8.027344 -1.632812 L 6.164062 -5.179688 C 5.902344 -5.714844 5.726562 -6.367188 5.636719 -6.804688 L 3.257812 -6.804688 C 3.1875 -6.425781 3.023438 -5.8125 2.703125 -5.171875 L 0.855469 -1.632812 C 0.523438 -1.011719 0.144531 -0.378906 -0.117188 0 Z M 3.070312 -2.75 L 3.964844 -4.480469 C 4.140625 -4.859375 4.257812 -5.171875 4.394531 -5.558594 L 4.480469 -5.558594 C 4.609375 -5.179688 4.734375 -4.851562 4.898438 -4.492188 L 5.804688 -2.75 Z M 3.070312 -2.75 "/></g></g></g><g fill="#ef7993" fill-opacity="1"><g transform="translate(325.057629, 269.547304)"><g><path d="M 4.21875 0.136719 C 6.433594 0.136719 7.84375 -0.652344 7.84375 -1.953125 C 7.84375 -4.734375 2.0625 -3.441406 2.0625 -4.917969 C 2.0625 -5.5 3.03125 -5.65625 4.132812 -5.65625 C 5.277344 -5.65625 6.445312 -5.375 7.164062 -4.957031 L 7.164062 -6.394531 C 6.394531 -6.71875 5.179688 -6.941406 4.074219 -6.941406 C 2.101562 -6.941406 0.496094 -6.25 0.496094 -4.9375 C 0.496094 -2.128906 6.269531 -3.363281 6.269531 -1.945312 C 6.269531 -1.339844 5.425781 -1.136719 4.191406 -1.136719 C 2.789062 -1.136719 1.449219 -1.449219 0.425781 -2.101562 L 0.359375 -0.554688 C 1.417969 -0.136719 3.042969 0.136719 4.21875 0.136719 Z M 4.21875 0.136719 "/></g></g></g><g fill="#ef7993" fill-opacity="1"><g transform="translate(338.920687, 269.547304)"><g><path d="M 0.789062 0 L 2.652344 0 C 2.546875 -0.378906 2.480469 -0.972656 2.480469 -1.632812 L 2.480469 -5.171875 C 2.480469 -5.832031 2.546875 -6.425781 2.652344 -6.804688 L 0.789062 -6.804688 C 0.894531 -6.425781 0.960938 -5.832031 0.960938 -5.171875 L 0.960938 -1.632812 C 0.960938 -0.972656 0.902344 -0.378906 0.789062 0 Z M 0.789062 0 "/></g></g></g><g fill="#ef7993" fill-opacity="1"><g transform="translate(348.010919, 269.547304)"><g><path d="M 4.21875 0.136719 C 6.433594 0.136719 7.84375 -0.652344 7.84375 -1.953125 C 7.84375 -4.734375 2.0625 -3.441406 2.0625 -4.917969 C 2.0625 -5.5 3.03125 -5.65625 4.132812 -5.65625 C 5.277344 -5.65625 6.445312 -5.375 7.164062 -4.957031 L 7.164062 -6.394531 C 6.394531 -6.71875 5.179688 -6.941406 4.074219 -6.941406 C 2.101562 -6.941406 0.496094 -6.25 0.496094 -4.9375 C 0.496094 -2.128906 6.269531 -3.363281 6.269531 -1.945312 C 6.269531 -1.339844 5.425781 -1.136719 4.191406 -1.136719 C 2.789062 -1.136719 1.449219 -1.449219 0.425781 -2.101562 L 0.359375 -0.554688 C 1.417969 -0.136719 3.042969 0.136719 4.21875 0.136719 Z M 4.21875 0.136719 "/></g></g></g></svg>